<?xml version="1.0" standalone="no"?>
<!DOCTYPE svg PUBLIC "-//W3C//DTD SVG 20010904//EN"
 "http://www.w3.org/TR/2001/REC-SVG-20010904/DTD/svg10.dtd">
<svg version="1.0" xmlns="http://www.w3.org/2000/svg"
 width="260.000000pt" height="260.000000pt" viewBox="0 0 260.000000 260.000000"
 preserveAspectRatio="xMidYMid meet">
<metadata>
Created by potrace 1.11, written by Peter Selinger 2001-2013
</metadata>
<g transform="translate(0.000000,260.000000) scale(0.100000,-0.100000)"
fill="#000000" stroke="none">
<path d="M1168 2575 c-2 -2 -36 -6 -77 -9 -94 -8 -137 -18 -267 -61 -84 -29
-114 -34 -147 -29 -99 16 -318 10 -402 -11 -11 -2 -40 -9 -65 -15 -57 -14 -82
-36 -78 -69 3 -23 9 -27 58 -34 127 -18 230 -58 230 -88 0 -6 -20 -38 -44 -72
-106 -149 -190 -355 -203 -496 -17 -195 -9 -271 53 -461 19 -58 34 -111 34
-118 0 -7 -15 -43 -32 -80 -30 -62 -33 -75 -33 -167 0 -95 15 -193 35 -224 7
-12 11 -13 25 -1 9 7 14 19 11 27 -10 24 20 79 59 109 20 15 51 52 67 81 16
29 31 53 33 53 2 0 15 -4 28 -9 14 -6 51 -13 84 -16 103 -11 124 -15 154 -30
16 -9 35 -24 42 -35 6 -11 17 -20 24 -20 27 0 26 77 -4 153 -44 113 -121 184
-223 207 -73 17 -82 25 -75 69 14 88 25 158 29 178 10 47 40 149 47 158 4 6
17 33 28 62 31 78 100 156 198 221 59 40 207 97 275 106 18 3 49 10 68 15 19
6 36 11 38 11 2 0 -16 -27 -39 -60 -23 -33 -45 -60 -48 -60 -15 0 -30 -63 -20
-81 10 -19 25 -22 129 -21 89 0 178 60 243 164 25 40 49 64 79 80 56 29 58 29
158 30 103 2 143 -4 269 -37 124 -32 165 -34 192 -9 23 21 23 27 3 70 -11 22
-32 43 -57 55 -48 25 -84 62 -103 107 -20 48 -129 158 -205 207 -97 63 -223
113 -322 129 -18 3 -40 8 -48 11 -15 6 -196 14 -201 10z"/>
<path d="M2341 1952 c-6 -11 -8 -22 -4 -26 7 -7 -27 -86 -38 -86 -16 0 -89
-84 -101 -116 -13 -37 -15 -38 -51 -25 -13 5 -55 12 -93 16 -101 10 -144 23
-176 56 -36 35 -44 36 -52 5 -14 -58 40 -199 99 -259 41 -40 83 -63 145 -77
75 -17 83 -26 76 -75 -8 -55 -25 -150 -31 -175 -81 -333 -224 -476 -545 -545
-36 -7 -73 -17 -82 -20 -24 -9 -23 7 2 35 11 13 20 26 20 29 0 3 11 18 24 32
51 55 57 101 15 114 -41 13 -144 7 -191 -11 -57 -23 -120 -80 -160 -146 -33
-53 -92 -97 -142 -106 -44 -8 -141 -8 -211 0 -65 8 -67 8 -135 27 -128 37
-170 40 -206 16 -19 -12 -23 -22 -19 -38 13 -46 30 -69 65 -87 54 -29 86 -61
109 -111 28 -58 117 -149 201 -204 54 -36 200 -104 235 -111 6 -1 46 -10 90
-19 190 -41 427 -16 640 67 34 13 60 17 85 13 19 -4 93 -9 164 -11 124 -4 166
1 340 41 29 7 56 36 56 61 0 29 -8 33 -70 39 -74 6 -162 33 -195 59 -32 26
-30 33 36 123 36 48 123 213 113 213 -2 0 2 13 10 28 17 33 53 144 61 187 3
17 7 81 10 143 5 127 -11 222 -66 383 -33 96 -33 100 10 189 21 45 26 71 28
145 3 144 -37 282 -66 227z"/>
</g>
</svg>
